<?xml version="1.0"?>
<!DOCTYPE svg PUBLIC "-//W3C//DTD SVG 1.1//EN" "http://www.w3.org/Graphics/SVG/1.1/DTD/svg11.dtd">
<!--Phoronix Test Suite v8.2.0 [ http://www.phoronix-test-suite.com/ ]-->
<svg xmlns="http://www.w3.org/2000/svg" xmlns:xlink="http://www.w3.org/1999/xlink" version="1.1" font-family="sans-serif, droid-sans, helvetica, verdana, tahoma" viewbox="0 0 1115 281" width="1115" height="281" preserveAspectRatio="xMinYMin meet"><rect x="0" y="0" width="1115" height="281" fill="#FEFEFE" stroke="#757575" stroke-width="2"/><rect x="1" y="1" width="1114" height="280" fill="#FEFEFE" stroke="#757575" stroke-width="1"/><path d="m74 22v9m-5-16v16m-5-28v28m-23-2h12.5c2.485281 0 4.5-2.014719 4.5-4.5s-2.014719-4.5-4.5-4.5h-8c-2.485281 0-4.5-2.014719-4.5-4.5s2.014719-4.5 4.5-4.5h12.5m-21 5h-11m11 13h-2c-4.970563 0-9-4.029437-9-9v-20m-24 40v-20c0-4.970563 4.0294373-9 9-9 4.970563 0 9 4.029437 9 9s-4.029437 9-9 9h-9" stroke="#000000" stroke-width="4" fill="none" transform="translate(499,28)"/><line x1="1078" y1="145" x2="1115" y2="145" stroke="#BABABA" stroke-width="240" stroke-dasharray="37,37"/><line x1="558" y1="73" x2="558" y2="265" stroke="#949494" stroke-width="1115" stroke-dasharray="16,16"/><line x1="1078" y1="145" x2="1115" y2="145" stroke="#757575" stroke-width="240" stroke-dasharray="1,36"/><rect x="1" y="1" width="1113" height="25" fill="#231f20"/><text x="5" y="19" font-size="17" fill="#FEFEFE" text-anchor="start">disk_test</text><line x1="1" y1="25" x2="1114" y2="25" stroke="#757575" stroke-width="1"/><g font-size="10" font-weight="bold" fill="#065695" text-anchor="end"><a xlink:href="https://openbenchmarking.org/test/pts/fio-1.11.2" xlink:show="new"><text x="1076" y="85">fio: Type: Random Read - IO Engine: Linux AIO - Buffered: Yes - Direct: Yes - Block Size: 1MB - Disk Target: Default Test Directory</text></a><a xlink:href="https://openbenchmarking.org/test/pts/fio-1.11.2" xlink:show="new"><text x="1076" y="101">fio: Type: Random Read - IO Engine: Linux AIO - Buffered: Yes - Direct: Yes - Block Size: 4KB - Disk Target: Default Test Directory</text></a><a xlink:href="https://openbenchmarking.org/test/pts/fio-1.11.2" xlink:show="new"><text x="1076" y="117">fio: Type: Random Read - IO Engine: Linux AIO - Buffered: Yes - Direct: Yes - Block Size: 4MB - Disk Target: Default Test Directory</text></a><a xlink:href="https://openbenchmarking.org/test/pts/fio-1.11.2" xlink:show="new"><text x="1076" y="133">fio: Type: Random Read - IO Engine: Linux AIO - Buffered: Yes - Direct: Yes - Block Size: 16KB - Disk Target: Default Test Directory</text></a><a xlink:href="https://openbenchmarking.org/test/pts/fio-1.11.2" xlink:show="new"><text x="1076" y="149">fio: Type: Random Write - IO Engine: Linux AIO - Buffered: Yes - Direct: Yes - Block Size: 1MB - Disk Target: Default Test Directory</text></a><a xlink:href="https://openbenchmarking.org/test/pts/fio-1.11.2" xlink:show="new"><text x="1076" y="165">fio: Type: Random Write - IO Engine: Linux AIO - Buffered: Yes - Direct: Yes - Block Size: 4KB - Disk Target: Default Test Directory</text></a><text x="1076" y="181">Flexible IO Tester: Type: Random Write - IO Engine: Linux AIO - Buffered: Yes - Direct: Yes - Block Size: 4KB - Disk Target: Default Test Directory</text><a xlink:href="https://openbenchmarking.org/test/pts/fio-1.11.2" xlink:show="new"><text x="1076" y="197">fio: Type: Random Write - IO Engine: Linux AIO - Buffered: Yes - Direct: Yes - Block Size: 4MB - Disk Target: Default Test Directory</text></a><a xlink:href="https://openbenchmarking.org/test/pts/fio-1.11.2" xlink:show="new"><text x="1076" y="213">fio: Type: Random Read - IO Engine: Linux AIO - Buffered: Yes - Direct: Yes - Block Size: 256KB - Disk Target: Default Test Directory</text></a><a xlink:href="https://openbenchmarking.org/test/pts/fio-1.11.2" xlink:show="new"><text x="1076" y="229">fio: Type: Random Write - IO Engine: Linux AIO - Buffered: Yes - Direct: Yes - Block Size: 16KB - Disk Target: Default Test Directory</text></a><text x="1076" y="245">Flexible IO Tester: Type: Random Write - IO Engine: Linux AIO - Buffered: Yes - Direct: Yes - Block Size: 16KB - Disk Target: Default Test Directory</text><a xlink:href="https://openbenchmarking.org/test/pts/fio-1.11.2" xlink:show="new"><text x="1076" y="261">fio: Type: Random Write - IO Engine: Linux AIO - Buffered: Yes - Direct: Yes - Block Size: 256KB - Disk Target: Default Test Directory</text></a></g><g font-size="10" fill="#065695" font-weight="bold" text-anchor="middle" dominant-baseline="text-before-edge"><text x="1097" y="49">my</text></g><g fill="#BABABA"/><g text-anchor="middle" font-size="10" fill="#065695"><text x="1097" y="86" xlink:title="STD Dev: 12.31%;  STD Error: 55.10">1551</text><text x="1097" y="102" xlink:title="STD Dev: 0.71%">0.61</text><text x="1097" y="118" xlink:title="STD Dev: 8.38%;  STD Error: 99.49">3563</text><text x="1097" y="134" xlink:title="STD Dev: 2.34%;  STD Error: 0.03">2.49</text><text x="1097" y="150" xlink:title="STD Dev: 6.40%;  STD Error: 3.27">169</text><text x="1097" y="166" xlink:title="STD Dev: 2.77%;  STD Error: 4.04">253</text><text x="1097" y="182" xlink:title="STD Dev: 2.72%;  STD Error: 1014.89">64700</text><text x="1097" y="198" xlink:title="STD Dev: 5.69%;  STD Error: 2.89">176</text><text x="1097" y="214" xlink:title="STD Dev: 0.97%;  STD Error: 0.15">27.40</text><text x="1097" y="230" xlink:title="STD Dev: 6.07%;  STD Error: 3.75">214</text><text x="1097" y="246" xlink:title="STD Dev: 6.10%;  STD Error: 241.47">13717</text><text x="1097" y="262" xlink:title="STD Dev: 16.33%;  STD Error: 11.63">214</text></g><line x1="558" y1="73" x2="558" y2="265" stroke="#949494" stroke-width="1115" stroke-dasharray="1,15"/><rect x="0" y="265" width="1115" height="16" fill="#231f20"/><a xlink:href="https://www.phoronix-test-suite.com/" xlink:show="new"><text x="1113" y="278" font-size="10" fill="#FFFFFF" text-anchor="end" xlink:show="new">PHORONIX-TEST-SUITE.COM</text></a></svg>
